<svg width="56" height="56" viewBox="0 0 56 56" fill="none" xmlns="http://www.w3.org/2000/svg">
<g clip-path="url(#clip0)">
<path d="M51.0842 40.9139H17.7285C15.2191 40.9139 11.4838 37.1409 11.4838 34.6049V9.55635C11.4838 6.88782 11.0686 3.86199 8.12501 1.77733L6.68839 0.622915C5.46922 -0.354895 3.69202 -0.159857 2.71159 1.05566C1.73298 2.27494 1.92711 4.05566 3.14548 5.03348L4.71444 6.28769C5.49892 6.84561 5.82675 7.42367 5.82675 9.55646V34.6047C5.82675 39.8366 11.0669 45.5232 16.3115 46.4314C15.5794 47.4295 15.1337 48.6483 15.1337 49.9781C15.1337 53.3041 17.8299 56 21.1555 56C24.4835 56 27.1774 53.3044 27.1774 49.9782C27.1774 48.713 26.7836 47.5401 26.1159 46.5713H36.7463C36.2064 47.474 35.8765 48.5163 35.8765 49.6431C35.8765 52.9691 38.5727 55.6649 41.8985 55.6649C45.2264 55.6649 47.9204 52.9693 47.9204 49.6431C47.9204 48.5163 47.5908 47.474 47.0523 46.5713H51.0842C52.6465 46.5713 53.9127 45.3042 53.9127 43.7427C53.9127 42.1813 52.6467 40.9139 51.0842 40.9139Z" fill="black"/>
<path d="M19.3387 44.1412H46.5423C48.4906 44.1412 50.0701 42.0323 50.0701 39.4296V27.7704C50.0701 25.1702 48.4907 23.0588 46.5423 23.0588H19.3387C17.3908 23.0588 15.8113 25.1702 15.8113 27.7704V39.4296C15.8113 42.0323 17.3908 44.1412 19.3387 44.1412Z" fill="black"/>
<path fill-rule="evenodd" clip-rule="evenodd" d="M37.5546 7.83838C37.5535 7.86081 37.5529 7.88338 37.5529 7.90609V11.2002C37.5529 11.9279 38.1428 12.5179 38.8705 12.5179C39.5983 12.5179 40.1882 11.9279 40.1882 11.2002V7.90609C40.1882 7.88338 40.1876 7.86081 40.1865 7.83838H43.635C45.2077 7.83838 46.482 9.11307 46.482 10.6856V17.7315C46.482 17.9465 46.4875 18.156 46.4928 18.3573V18.3575C46.5262 19.6287 46.5512 20.5783 45.1294 20.5783H20.0941C18.7241 20.5783 18.7615 19.6951 18.8125 18.4922C18.8228 18.2501 18.8336 17.995 18.8336 17.7315V10.6856C18.8336 9.11307 20.1083 7.83838 21.6808 7.83838H25.0369C25.0358 7.86081 25.0352 7.88338 25.0352 7.90609V11.2002C25.0352 11.9279 25.6252 12.5179 26.3529 12.5179C27.0806 12.5179 27.6705 11.9279 27.6705 11.2002V7.90609C27.6705 7.88338 27.6699 7.86081 27.6688 7.83838H37.5546Z" fill="black"/>
</g>
<defs>
<clipPath id="clip0">
<rect width="56" height="56" fill="white"/>
</clipPath>
</defs>
</svg>
