<svg width="30" height="25" viewBox="0 0 30 25" fill="none" xmlns="http://www.w3.org/2000/svg">
<path d="M28.5 3.9668H25.5L24.15 1.4168C24.15 1.1168 23.85 0.966797 23.55 0.966797H15.45C15.15 0.966797 14.85 1.1168 14.85 1.4168L13.5 3.9668H9V2.4668H4.05V3.9668H1.5C0.6 3.9668 0 4.5668 0 5.4668V23.4668C0 24.3668 0.6 24.9668 1.5 24.9668H28.5C29.4 24.9668 30 24.3668 30 23.4668V5.4668C30 4.5668 29.4 3.9668 28.5 3.9668ZM19.5 21.9668C15.3 21.9668 12 18.6668 12 14.4668C12 10.2668 15.3 6.9668 19.5 6.9668C23.7 6.9668 27 10.2668 27 14.4668C27 18.6668 23.7 21.9668 19.5 21.9668Z" fill="#72A2C9"/>
<path d="M19.5 9.9668C18.75 9.9668 18.15 10.1168 17.55 10.4168C18.9 11.7668 16.8 14.0168 15.45 12.5168C15.15 13.1168 15 13.7168 15 14.4668C15 17.0168 16.95 18.9668 19.5 18.9668C22.05 18.9668 24 17.0168 24 14.4668C24 11.9168 22.05 9.9668 19.5 9.9668Z" fill="#72A2C9"/>
</svg>
