<svg width="31" height="32" viewBox="0 0 31 32" fill="none" xmlns="http://www.w3.org/2000/svg">
<g opacity="0.25" clip-path="url(#clip0)">
<g clip-path="url(#clip1)">
<path d="M22.5009 12.2168C22.5009 6.00415 17.4638 0.966797 11.251 0.966797C5.03833 0.966797 0.000976562 6.00415 0.000976562 12.2168C0.000976562 18.4295 5.03833 23.4666 11.251 23.4666C17.4638 23.4666 22.5009 18.4295 22.5009 12.2168ZM11.251 20.654C6.59826 20.654 2.81356 16.8696 2.81356 12.2169C2.81356 7.56415 6.59826 3.77944 11.251 3.77944C15.9036 3.77944 19.6886 7.56415 19.6886 12.2169C19.6886 16.8696 15.9036 20.654 11.251 20.654Z" fill="#72A2C9"/>
<path d="M29.1757 26.1662L22.2933 19.2832C21.2678 20.8781 19.9107 22.2345 18.3158 23.2601L25.1988 30.1431C26.2976 31.2416 28.0792 31.2416 29.1757 30.1431C30.2746 29.0463 30.2745 27.2647 29.1757 26.1662Z" fill="#72A2C9"/>
</g>
</g>
<defs>
<clipPath id="clip0">
<rect width="30.239" height="30.239" fill="white" transform="translate(0 0.966797)"/>
</clipPath>
<clipPath id="clip1">
<rect width="30" height="30" fill="white" transform="translate(0 0.966797)"/>
</clipPath>
</defs>
</svg>
