<svg width="24" height="24" viewBox="0 0 34 34" fill="none" xmlns="http://www.w3.org/2000/svg">
<path d="M0 4C0 1.79086 1.79086 0 4 0H30C32.2091 0 34 1.79086 34 4V30C34 32.2091 32.2091 34 30 34H4C1.79086 34 0 32.2091 0 30V4Z" fill="#FF4200"/>
<path d="M11.3531 10.1142C11.3531 11.1609 10.4079 12.0096 9.24174 12.0096C8.07588 12.0096 7.13037 11.1609 7.13037 10.1142C7.13037 9.06745 8.07588 8.21875 9.24174 8.21875C10.4079 8.21875 11.3531 9.06745 11.3531 10.1142" fill="white"/>
<path d="M6.16942 14.8649L7.46505 12.8496C7.46505 12.8496 9.28833 14.2649 9.84037 14.745C10.3922 15.2249 11.3761 16.0407 11.3519 17.3602C11.3278 18.6797 10.9439 19.8315 10.632 20.6234C10.3203 21.415 8.28079 25.5897 8.28079 25.5897L5.16162 23.6463C5.16162 23.6463 8.1614 20.8715 9.31247 19.1837C9.67245 18.6558 10.1041 17.2644 8.88059 16.5444C7.65685 15.8247 6.16942 14.8649 6.16942 14.8649" fill="white"/>
<path d="M10.1763 13.665C10.1763 13.665 11.8796 12.5614 13.5594 7.95459C14.039 8.12251 16.4624 8.77033 16.4624 8.77033L15.6705 10.2339C15.6705 10.2339 19.2937 9.13031 22.4126 9.13031C22.4126 9.13031 24.1162 9.05842 25.436 9.49029C26.7555 9.92217 28.0994 10.8101 28.4353 12.2495C28.7711 13.6889 29.1308 18.4878 28.4591 22.8302C28.4591 22.8302 28.3151 23.8383 27.3794 24.7259C26.4438 25.6135 25.3161 26.0454 23.3246 26.0454C21.3332 26.0454 20.2774 25.6615 20.2774 25.6615L20.6854 23.9818C20.6854 23.9818 21.9091 24.4378 22.8686 24.4378C23.8284 24.4378 24.6441 24.0301 25.076 23.5263C25.076 23.5263 25.4601 22.9504 25.484 22.4705C25.5079 21.9906 25.532 12.7774 25.436 12.4654C25.34 12.1535 25.2201 10.9777 23.7324 10.6899C22.2449 10.4021 21.0692 10.5939 20.7092 10.666C20.3495 10.7379 18.0941 11.2897 16.9664 11.7455C17.3983 11.8895 18.2382 12.1054 18.2382 12.1054C18.2382 12.1054 17.8543 12.8973 17.1585 13.665C18.1182 13.6411 24.5001 13.665 24.5001 13.665V15.1047H20.3975V17.024H24.4524V18.4637H20.3975V21.5107C20.3975 21.5107 21.0692 21.5107 22.0529 20.743C21.981 20.2151 22.0049 20.1429 21.7651 19.3752C22.389 19.2314 23.6366 18.7995 23.6366 18.7995L25.1962 22.6625L22.8686 23.574L22.4368 22.0145C22.4368 22.0145 21.7412 22.8063 20.0376 23.3104C17.6656 24.0119 16.1509 23.982 15.7429 23.9582C15.7429 23.9582 14.5913 24.0057 13.8955 23.694C13.1994 23.3822 12.1919 22.6625 12.1919 20.5989C12.1919 19.9034 12.3598 19.3274 12.3598 19.3274L15.2869 19.3513C15.2869 19.3513 15.1431 20.3833 15.1431 20.6469C15.1431 20.9109 14.9269 22.0386 17.0383 22.0145C17.0383 20.5032 17.0144 18.4395 17.0144 18.4395L12.8397 18.4157V16.976H16.9905V15.1525H15.9347C15.9347 15.1525 14.7831 16.2324 14.1353 16.8802L12.9357 15.8244C12.9357 15.8244 14.3201 14.385 15.263 12.2975C14.7112 12.5134 13.7515 12.9453 13.7515 12.9453C13.7515 12.9453 13.0795 13.8091 12.2399 14.6967C11.6401 14.3609 10.1763 13.665 10.1763 13.665" fill="white"/>
</svg>
