<svg width="32" height="32" viewBox="0 0 32 32" fill="none" xmlns="http://www.w3.org/2000/svg">
<rect width="32" height="32" rx="8" fill="black"/>
<g clip-path="url(#clip0)">
<path d="M25.9848 14.5005L22.5976 12.5443L17.957 16.0117L22.5976 19.479L25.9962 17.5161C26.5261 17.1942 26.8424 16.6316 26.8424 16.0117C26.8424 15.3919 26.5261 14.8293 25.9848 14.5005Z" fill="#FF9100"/>
<path d="M19.1303 16.0118C19.1252 16.0183 15.0272 21.2871 15.0239 21.2914L9.68562 25.4956C9.35707 25.167 9.15765 24.7212 9.15765 24.2284V7.76602C9.15765 7.2733 9.35707 6.82742 9.68562 6.49895L15.0239 10.7321C15.0272 10.7364 19.1252 16.0052 19.1303 16.0118Z" fill="#25D9F8"/>
<path d="M19.1303 16.0117L17.957 17.5252V14.4982L19.1303 16.0117Z" fill="#00C0F1"/>
<path d="M22.6032 12.5389L19.1303 16.0118L9.68561 6.49899C9.80289 6.39335 9.92026 6.31123 10.0493 6.2291C10.6124 5.91236 11.2812 5.92405 11.8327 6.26433L17.957 9.86391L22.6032 12.5389Z" fill="#7FE881"/>
<path d="M22.6032 12.5389L19.1303 16.0117L17.957 14.8385V9.8639L22.6032 12.5389Z" fill="#5BC980"/>
<path d="M22.6032 19.4845L17.957 22.1596L11.821 25.7419C11.5394 25.9061 11.2343 26 10.9175 26C10.6242 26 10.3309 25.9179 10.0493 25.7653C9.92026 25.6832 9.80289 25.6011 9.68561 25.4955L19.1303 16.0117L22.6032 19.4845Z" fill="#FF637B"/>
<path d="M22.6032 19.4845L17.957 22.1596V17.185L19.1303 16.0117L22.6032 19.4845Z" fill="#E63950"/>
</g>
<defs>
<clipPath id="clip0">
<rect width="20" height="20" fill="white" transform="translate(8 6)"/>
</clipPath>
</defs>
</svg>
