<svg xmlns="http://www.w3.org/2000/svg" xmlns:xlink="http://www.w3.org/1999/xlink" width="128" height="1601" viewBox="0 0 128 1601"><svg width="116" height="52" viewBox="-10 -10 116 52" fill="none" id="app-store" y="0"><path d="M6.165 31.998c-.249 0-.49-.003-.737-.008a10.054 10.054 0 0 1-1.521-.136 4.704 4.704 0 0 1-1.35-.46 4.407 4.407 0 0 1-1.137-.85 4.446 4.446 0 0 1-.83-1.168 4.88 4.88 0 0 1-.442-1.386 10.663 10.663 0 0 1-.136-1.568C.007 26.244 0 25.656 0 25.656V6.332s.008-.578.012-.748c.006-.525.051-1.048.135-1.566.077-.484.227-.952.442-1.39A4.564 4.564 0 0 1 2.557.602c.424-.22.878-.374 1.346-.456A9.98 9.98 0 0 1 5.43.01L6.165 0H89.83l.744.01a9.894 9.894 0 0 1 1.513.136c.473.083.932.238 1.36.459a4.62 4.62 0 0 1 1.966 2.024c.212.435.36.9.436 1.38.084.521.132 1.05.141 1.578.003.238.003.492.003.745.006.314.006.613.006.914v17.508c0 .304 0 .6-.006.899 0 .272 0 .521-.004.777-.009.52-.055 1.039-.138 1.552a4.892 4.892 0 0 1-.44 1.396 4.58 4.58 0 0 1-.827 1.16 4.416 4.416 0 0 1-1.14.856 4.684 4.684 0 0 1-1.357.459 9.817 9.817 0 0 1-1.522.136c-.238.006-.489.01-.73.01l-.884.001-82.787-.002z" fill="#000"></path><path d="M19.445 15.94c.009-.686.19-1.357.524-1.953a4.047 4.047 0 0 1 1.394-1.455 4.135 4.135 0 0 0-1.417-1.273 4.097 4.097 0 0 0-1.831-.498c-1.367-.143-2.691.825-3.388.825-.71 0-1.781-.81-2.936-.786a4.299 4.299 0 0 0-2.112.635 4.346 4.346 0 0 0-1.528 1.603c-1.574 2.748-.4 6.785 1.108 9.006.754 1.088 1.636 2.302 2.789 2.26 1.129-.048 1.55-.726 2.913-.726 1.349 0 1.745.725 2.922.698 1.21-.02 1.974-1.092 2.701-2.19a9.026 9.026 0 0 0 1.237-2.537 3.899 3.899 0 0 1-1.727-1.445 3.947 3.947 0 0 1-.649-2.165zm-2.223-6.638c.66-.8.986-1.827.907-2.864a4.023 4.023 0 0 0-2.61 1.361 3.812 3.812 0 0 0-.931 2.758A3.314 3.314 0 0 0 17.222 9.3zM33.713 21.55H29.86l-.925 2.755h-1.632l3.648-10.19h1.695l3.649 10.19h-1.66l-.923-2.755zm-3.453-1.27h3.053l-1.505-4.47h-.042l-1.506 4.47zm13.915.31c0 2.309-1.226 3.792-3.075 3.792a2.48 2.48 0 0 1-1.344-.314 2.508 2.508 0 0 1-.974-.986h-.034v3.68h-1.513v-9.886H38.7v1.235h.028c.237-.412.58-.752.993-.983.413-.231.88-.345 1.352-.33 1.87 0 3.102 1.49 3.102 3.792h.001zm-1.555 0c0-1.504-.77-2.493-1.946-2.493-1.156 0-1.933 1.01-1.933 2.493 0 1.497.778 2.5 1.933 2.5 1.176 0 1.947-.982 1.947-2.5h-.001zm9.663 0c0 2.309-1.224 3.792-3.074 3.792a2.481 2.481 0 0 1-1.344-.314 2.509 2.509 0 0 1-.974-.986h-.035v3.68h-1.512v-9.886h1.463v1.235h.028c.237-.412.58-.752.993-.983.414-.231.881-.345 1.353-.33 1.87 0 3.102 1.49 3.102 3.792zm-1.555 0c0-1.504-.77-2.493-1.946-2.493-1.155 0-1.932 1.01-1.932 2.493 0 1.497.777 2.5 1.932 2.5 1.176 0 1.947-.982 1.947-2.5zm6.915.875c.112 1.01 1.085 1.674 2.416 1.674 1.274 0 2.191-.664 2.191-1.575 0-.79-.553-1.264-1.863-1.588l-1.309-.319c-1.856-.452-2.717-1.326-2.717-2.746 0-1.759 1.519-2.966 3.677-2.966 2.134 0 3.599 1.208 3.648 2.966H62.16c-.092-1.017-.925-1.63-2.143-1.63-1.219 0-2.053.62-2.053 1.524 0 .72.533 1.144 1.835 1.468l1.113.276c2.074.495 2.936 1.335 2.936 2.824 0 1.907-1.507 3.101-3.902 3.101-2.24 0-3.753-1.166-3.851-3.009h1.547zm9.468-6.348v1.759h1.401v1.208h-1.4v4.094c0 .637.28.933.896.933.166-.003.332-.015.497-.035v1.2a4.118 4.118 0 0 1-.84.07c-1.492 0-2.073-.564-2.073-2.005v-4.258H64.52v-1.208h1.07v-1.758h1.52zm2.212 5.473c0-2.337 1.366-3.805 3.494-3.805 2.137 0 3.495 1.468 3.495 3.805 0 2.344-1.351 3.806-3.495 3.806-2.142 0-3.494-1.462-3.494-3.806zm5.448 0c0-1.603-.728-2.55-1.954-2.55-1.225 0-1.952.954-1.952 2.55 0 1.61.727 2.549 1.952 2.549 1.226 0 1.954-.94 1.954-2.549zm2.788-3.714h1.443v1.264h.035c.097-.395.327-.744.65-.988.322-.245.719-.37 1.122-.354.175 0 .347.019.518.056v1.427a2.1 2.1 0 0 0-.68-.092 1.512 1.512 0 0 0-1.178.489 1.538 1.538 0 0 0-.397 1.22v4.407h-1.513v-7.43zm10.74 5.246c-.204 1.349-1.506 2.274-3.172 2.274-2.143 0-3.474-1.448-3.474-3.77 0-2.33 1.338-3.841 3.41-3.841 2.04 0 3.32 1.41 3.32 3.663v.523H83.18v.092a1.951 1.951 0 0 0 .52 1.503 1.918 1.918 0 0 0 1.462.6c.357.035.716-.049 1.022-.237.307-.188.545-.471.68-.807h1.435zm-5.112-2.217h3.684a1.802 1.802 0 0 0-.495-1.34 1.771 1.771 0 0 0-1.313-.545 1.85 1.85 0 0 0-1.328.548 1.88 1.88 0 0 0-.548 1.337zM29.185 8.516h.649a.809.809 0 0 0 .833-.454.827.827 0 0 0 .082-.327c0-.451-.337-.743-.908-.743a.858.858 0 0 0-.875.437.878.878 0 0 0-.105.33h-.712a1.545 1.545 0 0 1 .549-1.092 1.518 1.518 0 0 1 1.166-.34c.956 0 1.63.54 1.63 1.316.002.26-.085.514-.245.717-.16.204-.386.346-.638.403v.058c.299.013.58.145.783.367.202.222.309.516.297.817a1.644 1.644 0 0 1-.603 1.112 1.617 1.617 0 0 1-1.21.344 1.603 1.603 0 0 1-1.217-.335 1.625 1.625 0 0 1-.607-1.114h.724c.043.468.47.77 1.1.77.63 0 1.04-.34 1.04-.818 0-.485-.387-.784-1.064-.784h-.67v-.664zm3.328 1.78c0-.664.492-1.047 1.363-1.102l.993-.058v-.318c0-.39-.255-.612-.75-.612-.404 0-.682.15-.764.412h-.7c.074-.636.666-1.042 1.498-1.042.919 0 1.436.46 1.436 1.242v2.524h-.697v-.52h-.057a1.238 1.238 0 0 1-1.1.58 1.099 1.099 0 0 1-.854-.279 1.116 1.116 0 0 1-.368-.826zm2.356-.315v-.309l-.895.058c-.504.034-.733.208-.733.533 0 .332.285.526.679.526a.859.859 0 0 0 .858-.474.877.877 0 0 0 .09-.334h.001zm2.64-1.72v3.08h-.724V7.649h2.413v.614L37.51 8.26zm6.072 1.232c0 1.173-.589 1.91-1.514 1.91a1.187 1.187 0 0 1-1.127-.62h-.057v1.787h-.724V7.647h.696v.61h.055a1.27 1.27 0 0 1 1.15-.671c.932 0 1.52.732 1.52 1.907zm-.744 0c0-.781-.366-1.252-.98-1.252-.608 0-.989.481-.989 1.255 0 .77.381 1.252.986 1.252.617 0 .983-.472.983-1.255zm1.707 3.172v-.627c.079.01.157.014.236.013a.623.623 0 0 0 .663-.516l.054-.18-1.327-3.708h.788l.919 2.935h.057l.916-2.934h.766l-1.366 3.847c-.313.9-.66 1.187-1.406 1.187a3.25 3.25 0 0 1-.3-.016v-.001zm3.635-2.371h.72c.071.325.374.496.797.496.482 0 .778-.215.778-.548 0-.356-.266-.526-.778-.526h-.547V9.15h.538c.437 0 .66-.17.66-.479 0-.271-.216-.478-.66-.478-.405 0-.7.173-.747.465h-.697c.052-.336.232-.637.502-.839.27-.202.608-.29.942-.243.87 0 1.37.397 1.37 1.02a.764.764 0 0 1-.58.758v.057a.826.826 0 0 1 .717.831c0 .703-.593 1.168-1.498 1.168-.8 0-1.45-.37-1.517-1.116zm4.057 1.048V7.648h.716v2.54h.057l1.69-2.54h.716v3.694h-.716V8.788h-.054l-1.693 2.554h-.716zm7.128-3.081H58.21v3.08h-.724v-3.08h-1.154v-.614h3.032l-.001.614zm3.895 2.083a1.5 1.5 0 0 1-.602.825 1.48 1.48 0 0 1-.986.244 1.654 1.654 0 0 1-1.284-.559 1.681 1.681 0 0 1-.409-1.348 1.718 1.718 0 0 1 .408-1.353 1.69 1.69 0 0 1 1.282-.577c1.02 0 1.635.702 1.635 1.862v.255h-2.587v.04a.982.982 0 0 0 .583.98c.124.054.258.08.392.079a.876.876 0 0 0 .872-.448h.696zm-2.543-1.19h1.85a.898.898 0 0 0-.542-.89.877.877 0 0 0-.36-.068.93.93 0 0 0-.675.277.947.947 0 0 0-.273.68zm5.609-1.507h1.653c.716 0 1.136.367 1.136.94a.797.797 0 0 1-.618.78v.058a.84.84 0 0 1 .783.852c0 .644-.481 1.065-1.286 1.065h-1.668V7.648zm.717.56v.956h.716c.438 0 .647-.17.647-.481 0-.288-.182-.476-.566-.476h-.797v.001zm0 1.492v1.083h.857c.428 0 .657-.19.657-.54 0-.37-.26-.543-.748-.543h-.766z" fill="#fff"></path></svg><svg width="36" height="37" viewBox="-10 -10 36 37" fill="none" id="cargo" y="52"><path d="M15.2 11.367h-12v-9.6c0-.48-.32-.8-.8-.8H.8c-.48 0-.8.32-.8.8 0 .48.32.8.8.8h.8v9.6c0 .48.32.8.8.8h12.8c.48 0 .8-.32.8-.8 0-.48-.32-.8-.8-.8zM5.2 16.967a1.2 1.2 0 1 0 0-2.4 1.2 1.2 0 0 0 0 2.4zM12.4 16.967a1.2 1.2 0 1 0 0-2.4 1.2 1.2 0 0 0 0 2.4z" fill="#FD6D1B"></path><path d="M5.2 9.767h9.6c.24 0 .4-.16.4-.4v-7.2c0-.24-.16-.4-.4-.4H5.2c-.24 0-.4.16-.4.4v7.2c0 .24.16.4.4.4zm6.8-6.4l1.6 1.6h-.8v2.4h-1.6v-2.4h-.8l1.6-1.6zm-4 0l1.6 1.6h-.8v2.4H7.2v-2.4h-.8l1.6-1.6z" fill="#FD6D1B"></path></svg><svg width="45" height="44" viewBox="-10 -10 45 44" fill="none" id="cart" y="89"><path d="M8.04 24a1.8 1.8 0 1 0 0-3.6 1.8 1.8 0 0 0 0 3.6zM18.84 24a1.8 1.8 0 1 0 0-3.6 1.8 1.8 0 0 0 0 3.6zM21.84 12.72l2.28-8.4c.12-.36-.12-.72-.48-.72H5.4l-.48-2.52C4.92.48 4.32 0 3.84 0H1.2C.48 0 0 .48 0 1.2s.48 1.2 1.2 1.2h1.44c.24 1.44 2.04 12.84 2.28 14.64.12.6.6.96 1.2.96h15.6c.72 0 1.2-.48 1.2-1.2s-.48-1.2-1.2-1.2H7.2l-.36-2.4h14.52c.24 0 .48-.12.48-.48zm-12-3.12c0 .72-.48 1.2-1.2 1.2s-1.2-.48-1.2-1.2V7.2c0-.72.48-1.2 1.2-1.2s1.2.48 1.2 1.2v2.4zm4.8 0c0 .72-.48 1.2-1.2 1.2s-1.2-.48-1.2-1.2V7.2c0-.72.48-1.2 1.2-1.2s1.2.48 1.2 1.2v2.4zm4.8 0c0 .72-.48 1.2-1.2 1.2s-1.2-.48-1.2-1.2V7.2c0-.72.48-1.2 1.2-1.2s1.2.48 1.2 1.2v2.4z" fill="#333"></path></svg><svg width="36" height="36" viewBox="-10 -10 36 36" fill="none" id="check" y="133"><path fill-rule="evenodd" clip-rule="evenodd" d="M8 0C3.589 0 0 3.589 0 8s3.589 8 8 8 8-3.589 8-8-3.589-8-8-8zm0 14.95A6.959 6.959 0 0 1 1.05 8 6.959 6.959 0 0 1 8 1.05 6.959 6.959 0 0 1 14.95 8 6.959 6.959 0 0 1 8 14.95z" fill="#0060AE"></path><path fill-rule="evenodd" clip-rule="evenodd" d="M10.896 5.381L6.771 9.506 5.104 7.84a.525.525 0 0 0-.742.742L6.4 10.619a.523.523 0 0 0 .742 0l.001-.002 4.495-4.494a.524.524 0 1 0-.742-.742z" fill="#0060AE"></path></svg><svg width="28" height="28" viewBox="-10 -10 28 28" fill="none" id="check-sm" y="169"><path d="M2.545 5.773L.636 3.863 0 4.5l2.545 2.546L8 1.59 7.364.955 2.545 5.773z" fill="#fff"></path></svg><svg width="44" height="44" viewBox="-10 -10 44 44" fill="none" id="close" y="197"><g clip-path="url(#a)"><path fill="#fff" d="M-4-4h40v40H-4z"></path><path d="M21 4.8L19.2 3 12 10.2 4.8 3 3 4.8l7.2 7.2L3 19.2 4.8 21l7.2-7.2 7.2 7.2 1.8-1.8-7.2-7.2L21 4.8z" fill="#DFDFDF"></path></g><defs><clipPath id="a"><path fill="#fff" d="M0 0h24v24H0z"></path></clipPath></defs></svg><svg width="36" height="36" viewBox="-10 -10 36 36" fill="none" id="danger" y="241"><path d="M8 0C3.589 0 0 3.589 0 8s3.589 8 8 8 8-3.589 8-8-3.589-8-8-8zm0 12.667a.667.667 0 1 1 0-1.334.667.667 0 0 1 0 1.334zm.667-3.334a.667.667 0 0 1-1.334 0V4a.667.667 0 0 1 1.334 0v5.333z" fill="#0060AE"></path></svg><svg width="36" height="36" viewBox="-10 -10 36 36" fill="none" id="danger-orange" y="277"><path d="M8 0C3.589 0 0 3.589 0 8s3.589 8 8 8 8-3.589 8-8-3.589-8-8-8zm0 12.667a.667.667 0 1 1 0-1.334.667.667 0 0 1 0 1.334zm.667-3.334a.667.667 0 0 1-1.334 0V4a.667.667 0 0 1 1.334 0v5.333z" fill="#FD6D1B"></path></svg><svg width="34" height="35" viewBox="-10 -10 34 35" fill="none" id="dollar-symbol" y="313"><g clip-path="url(#a)"><path d="M8.947 7.326c-.55-.303-1.133-.535-1.712-.774a3.843 3.843 0 0 1-.94-.527c-.557-.445-.45-1.168.203-1.454a1.65 1.65 0 0 1 .575-.119 4.367 4.367 0 0 1 2.163.428c.341.165.454.113.57-.243.121-.376.223-.757.335-1.136.075-.254-.017-.422-.257-.53a5.498 5.498 0 0 0-1.365-.407c-.619-.095-.619-.098-.622-.72-.002-.876-.002-.876-.881-.876-.128 0-.255-.003-.382 0-.41.012-.48.084-.492.497-.005.185 0 .37-.003.558-.002.55-.005.541-.532.732-1.272.463-2.058 1.33-2.142 2.718-.075 1.229.567 2.059 1.576 2.663.621.373 1.31.593 1.969.885.257.113.503.243.717.422.633.523.517 1.394-.234 1.723-.402.177-.827.22-1.264.165a5.64 5.64 0 0 1-1.926-.575c-.355-.185-.46-.136-.58.248-.105.333-.197.668-.29 1.004-.124.45-.078.558.353.769.55.266 1.136.402 1.735.497.468.075.483.096.488.581.003.22.003.443.006.662.003.278.136.44.422.446.324.006.65.006.975-.003.266-.006.402-.15.402-.42 0-.3.014-.604.003-.904-.015-.307.118-.463.413-.544a3.268 3.268 0 0 0 1.703-1.093c1.238-1.504.766-3.704-.986-4.673z" fill="#0060AE"></path></g><defs><clipPath id="a"><path fill="#fff" transform="translate(0 .967)" d="M0 0h14v14H0z"></path></clipPath></defs></svg><svg width="32" height="29" viewBox="-10 -10 32 29" fill="none" id="equal" y="348"><path d="M.56 2.992H11.6V.448H.56v2.544zm0 5.28H11.6V5.728H.56v2.544z" fill="#000"></path></svg><svg width="52" height="52" viewBox="-10 -10 52 52" fill="none" id="facebook" y="377"><path d="M16 0C7.178 0 0 7.178 0 16s7.178 16 16 16 16-7.178 16-16S24.823 0 16 0zm3.98 16.563h-2.604v9.278h-3.857v-9.278h-1.834v-3.279h1.834v-2.12c0-1.52.722-3.894 3.892-3.894l2.859.011v3.183h-2.075c-.338 0-.818.17-.818.894v1.927h2.94l-.338 3.278z" fill="#4563A0"></path></svg><svg width="128" height="52" viewBox="-10 -10 128 52" fill="none" id="google-play" y="429"><path d="M104 32H4c-2.2 0-4-1.8-4-4V4c0-2.2 1.8-4 4-4h100c2.2 0 4 1.8 4 4v24c0 2.2-1.8 4-4 4z" fill="#000"></path><path d="M54.512 17.4c-1.88 0-3.416 1.432-3.416 3.4 0 1.96 1.536 3.4 3.416 3.4s3.416-1.44 3.416-3.4c0-1.968-1.536-3.4-3.416-3.4zm0 5.464c-1.032 0-1.92-.848-1.92-2.064 0-1.224.888-2.064 1.92-2.064s1.92.84 1.92 2.064c0 1.216-.896 2.064-1.92 2.064zM47.056 17.4c-1.88 0-3.416 1.432-3.416 3.4 0 1.96 1.536 3.4 3.416 3.4s3.416-1.44 3.416-3.4c0-1.968-1.536-3.4-3.416-3.4zm0 5.464c-1.032 0-1.92-.848-1.92-2.064 0-1.224.888-2.064 1.92-2.064s1.92.84 1.92 2.064c0 1.216-.888 2.064-1.92 2.064zm-8.864-4.416v1.44h3.456c-.104.808-.376 1.408-.784 1.816-.504.504-1.288 1.056-2.664 1.056-2.128 0-3.792-1.712-3.792-3.84s1.664-3.84 3.792-3.84c1.144 0 1.984.448 2.6 1.032l1.016-1.016c-.864-.824-2.008-1.456-3.624-1.456-2.912 0-5.36 2.368-5.36 5.288 0 2.912 2.448 5.288 5.36 5.288 1.576 0 2.76-.512 3.688-1.48.952-.952 1.248-2.296 1.248-3.376 0-.336-.024-.648-.08-.904h-4.856v-.008zm36.248 1.12c-.28-.76-1.144-2.168-2.912-2.168-1.752 0-3.208 1.376-3.208 3.4 0 1.904 1.44 3.4 3.376 3.4 1.56 0 2.464-.952 2.832-1.504l-1.16-.776c-.384.568-.912.944-1.672.944-.76 0-1.304-.352-1.648-1.032l4.552-1.88-.16-.384zm-4.64 1.136c-.04-1.312 1.016-1.984 1.776-1.984.592 0 1.096.296 1.264.72l-3.04 1.264zM66.104 24H67.6V14h-1.496v10zm-2.448-5.84H63.6c-.336-.4-.976-.76-1.792-.76-1.704 0-3.264 1.496-3.264 3.416 0 1.904 1.56 3.392 3.264 3.392.808 0 1.456-.36 1.792-.776h.048v.488c0 1.304-.696 2-1.816 2-.912 0-1.48-.656-1.712-1.208l-1.304.544c.376.904 1.368 2.008 3.016 2.008 1.752 0 3.232-1.032 3.232-3.544v-6.112h-1.416v.552h.008zm-1.72 4.704c-1.032 0-1.896-.864-1.896-2.048 0-1.2.864-2.072 1.896-2.072 1.016 0 1.816.88 1.816 2.072.008 1.184-.792 2.048-1.816 2.048zM81.448 14h-3.576v10h1.496v-3.792h2.088c1.656 0 3.28-1.2 3.28-3.104 0-1.904-1.64-3.104-3.288-3.104zm.032 4.816h-2.12v-3.432h2.12c1.12 0 1.752.928 1.752 1.712 0 .784-.632 1.72-1.752 1.72zm9.232-1.432c-1.08 0-2.2.48-2.664 1.528l1.328.552c.28-.552.808-.736 1.36-.736.768 0 1.56.464 1.568 1.288v.104a3.341 3.341 0 0 0-1.56-.384c-1.432 0-2.88.784-2.88 2.248 0 1.336 1.168 2.2 2.48 2.2 1 0 1.56-.448 1.904-.976h.048v.776h1.44v-3.832c.008-1.776-1.32-2.768-3.024-2.768zm-.184 5.48c-.488 0-1.168-.248-1.168-.848 0-.768.848-1.064 1.584-1.064.656 0 .968.144 1.36.336a1.806 1.806 0 0 1-1.776 1.576zm8.464-5.264l-1.712 4.336h-.048L95.456 17.6h-1.608l2.664 6.064-1.52 3.368h1.56l4.104-9.432h-1.664zM85.552 24h1.496V14h-1.496v10z" fill="#fff"></path><path d="M8.352 6.032c-.232.248-.368.632-.368 1.12v17.696c0 .496.136.88.368 1.12l.056.056 9.912-9.904v-.24L8.408 5.976l-.056.056z" fill="url(#a)"></path><path d="M21.624 19.424L18.32 16.12v-.24l3.304-3.304.072.04 3.912 2.224c1.12.632 1.12 1.672 0 2.312l-3.912 2.224-.072.048z" fill="url(#b)"></path><path d="M21.697 19.376L18.32 16l-9.968 9.968c.368.392.976.44 1.664.048l11.68-6.64z" fill="url(#c)"></path><path d="M21.696 12.624l-11.688-6.64c-.688-.392-1.296-.344-1.664.048L18.32 16l3.376-3.376z" fill="url(#d)"></path><path opacity=".2" d="M21.625 19.304l-11.616 6.6c-.648.368-1.232.344-1.6.008l-.056.056.056.056c.376.336.952.36 1.6-.008l11.688-6.64-.072-.072z" fill="#000"></path><path opacity=".12" d="M8.352 25.856c-.232-.248-.368-.632-.368-1.12v.12c0 .496.136.88.368 1.12l.056-.056-.056-.064zM25.608 17.04l-3.992 2.264.072.072 3.912-2.224c.56-.32.84-.736.84-1.152-.04.376-.32.752-.832 1.04z" fill="#000"></path><path opacity=".25" d="M10.008 6.096l15.6 8.864c.505.288.793.656.84 1.04 0-.416-.28-.84-.84-1.152l-15.6-8.864c-1.12-.632-2.031-.104-2.031 1.176v.12c0-1.288.92-1.816 2.031-1.184z" fill="#fff"></path><path d="M33.687 11.416h-.592V9.808h.472c.416-.36.616-.968.608-1.84V5.6h3.208v4.208h.536v1.608h-.592V10.4h-3.64v1.016zm1.112-3.44c.008.76-.144 1.368-.456 1.84h2.424V6.192H34.8v1.784zm7.928 1.8c-.472.488-1.056.728-1.76.728s-1.288-.24-1.76-.728-.704-1.08-.704-1.776.232-1.296.704-1.776c.472-.488 1.056-.728 1.76-.728.696 0 1.28.24 1.76.728.472.488.712 1.08.712 1.776 0 .704-.24 1.296-.712 1.776zm-3.064-.4c.352.36.792.536 1.304.536s.952-.176 1.304-.536c.352-.36.536-.816.536-1.376 0-.56-.176-1.016-.536-1.376a1.756 1.756 0 0 0-1.304-.536c-.512 0-.952.176-1.304.536-.352.36-.536.816-.536 1.376 0 .56.184 1.016.536 1.376zm6.88 1.128c-.704 0-1.296-.24-1.776-.72s-.72-1.072-.72-1.792.24-1.312.72-1.792 1.072-.72 1.776-.72c.72 0 1.312.264 1.76.784l-.432.416c-.328-.408-.768-.608-1.336-.608-.52 0-.968.176-1.328.528-.36.352-.536.816-.536 1.384s.176 1.032.536 1.384c.36.352.8.528 1.328.528.576 0 1.064-.232 1.472-.696l.432.432a2.299 2.299 0 0 1-.824.624 2.226 2.226 0 0 1-1.072.248zm4.4-.104h-.616V6.192h-1.344V5.6h3.296v.592h-1.344V10.4h.008zm5.576-4.8l-1.816 4.048c-.248.568-.624.856-1.12.856a1.27 1.27 0 0 1-.48-.104l.16-.568a.665.665 0 0 0 .32.088c.144 0 .256-.024.336-.08.08-.056.152-.16.216-.304l.176-.384L52.695 5.6h.728l1.184 2.752h.024l1.16-2.752h.728zm.696 4.8V5.6h3.472v4.8h-.616V6.192h-2.24V10.4h-.616zm4.568 0V5.6h.616v2.056h2.4V5.6h.616v4.8H64.8V8.232h-2.4V10.4h-.616zm8.664-.624c-.472.488-1.056.728-1.76.728s-1.288-.24-1.76-.728-.704-1.08-.704-1.776.232-1.296.704-1.776c.472-.488 1.056-.728 1.76-.728.696 0 1.28.24 1.76.728.472.488.712 1.08.712 1.776-.008.704-.24 1.296-.712 1.776zm-3.064-.4c.352.36.792.536 1.304.536s.952-.176 1.304-.536c.352-.36.536-.816.536-1.376 0-.56-.176-1.016-.536-1.376a1.756 1.756 0 0 0-1.304-.536c-.512 0-.952.176-1.304.536-.352.36-.536.816-.536 1.376 0 .56.176 1.016.536 1.376zm6.288 1.024V5.6h1.736c.376 0 .704.128.976.368.272.248.416.56.416.936 0 .232-.056.432-.176.6-.12.176-.272.304-.472.392v.024c.24.08.432.216.584.416.152.2.232.424.232.688 0 .392-.144.72-.432.976a1.502 1.502 0 0 1-1.024.392h-1.84v.008zm.616-2.744h1.12c.232 0 .416-.08.56-.232a.708.708 0 0 0 .208-.504.708.708 0 0 0-.208-.504.684.684 0 0 0-.536-.232h-1.144v1.472zm0 2.152h1.24c.24 0 .432-.08.576-.248.144-.168.224-.344.224-.544a.729.729 0 0 0-.232-.536.795.795 0 0 0-.6-.248H74.28v1.576h.008z" fill="#fff" stroke="#fff" stroke-width=".2"></path><defs><linearGradient id="a" x1="14.292" y1="6.968" x2="5.795" y2="15.465" gradientUnits="userSpaceOnUse"><stop stop-color="#00A0FF"></stop><stop offset=".007" stop-color="#00A1FF"></stop><stop offset=".26" stop-color="#00BEFF"></stop><stop offset=".512" stop-color="#00D2FF"></stop><stop offset=".76" stop-color="#00DFFF"></stop><stop offset="1" stop-color="#00E3FF"></stop></linearGradient><linearGradient id="b" x1="27.068" y1="16.001" x2="7.71" y2="16.001" gradientUnits="userSpaceOnUse"><stop stop-color="#FFE000"></stop><stop offset=".409" stop-color="#FFBD00"></stop><stop offset=".775" stop-color="#FFA500"></stop><stop offset="1" stop-color="#FF9C00"></stop></linearGradient><linearGradient id="c" x1="19.862" y1="19.178" x2="5.349" y2="33.692" gradientUnits="userSpaceOnUse"><stop stop-color="#FF3A44"></stop><stop offset="1" stop-color="#C31162"></stop></linearGradient><linearGradient id="d" x1="5.838" y1="4.496" x2="12.316" y2="10.974" gradientUnits="userSpaceOnUse"><stop stop-color="#32A071"></stop><stop offset=".069" stop-color="#2DA771"></stop><stop offset=".476" stop-color="#15CF74"></stop><stop offset=".801" stop-color="#06E775"></stop><stop offset="1" stop-color="#00F076"></stop></linearGradient></defs></svg><svg width="46" height="44" viewBox="-10 -10 46 44" fill="none" id="heart" y="481"><path d="M25.957 7.157C25.577 3.009 22.621 0 18.921 0c-2.466 0-4.723 1.318-5.993 3.428C11.67 1.29 9.505 0 7.08 0 3.38 0 .422 3.009.043 7.156c-.03.183-.153 1.147.221 2.72.54 2.267 1.785 4.33 3.6 5.963L12.922 24l9.214-8.16c1.815-1.634 3.06-3.696 3.6-5.964.373-1.572.25-2.536.221-2.72z" fill="#333"></path></svg><svg width="52" height="52" viewBox="-10 -10 52 52" fill="none" id="instagram" y="525"><path d="M19.063 16a3.062 3.062 0 1 1-6.125 0 3.062 3.062 0 0 1 6.124 0z" fill="#BD3180"></path><path d="M23.163 10.581a2.846 2.846 0 0 0-.687-1.056 2.845 2.845 0 0 0-1.057-.687c-.323-.126-.81-.276-1.705-.317-.97-.044-1.26-.053-3.713-.053-2.453 0-2.744.01-3.713.053-.895.041-1.382.19-1.706.317-.399.147-.76.382-1.056.687-.305.296-.54.657-.687 1.056-.126.324-.276.81-.317 1.706-.044.97-.053 1.26-.053 3.713 0 2.453.01 2.744.053 3.713.041.895.19 1.382.317 1.706.147.399.382.76.687 1.056.296.305.657.54 1.056.687.324.126.81.276 1.706.317.97.044 1.26.053 3.713.053 2.453 0 2.744-.01 3.712-.053.896-.041 1.383-.19 1.706-.317a3.043 3.043 0 0 0 1.744-1.743c.126-.324.276-.81.317-1.706.044-.97.053-1.26.053-3.713 0-2.453-.01-2.744-.053-3.713-.041-.895-.19-1.382-.317-1.706zm-7.162 10.137a4.718 4.718 0 1 1 0-9.436 4.718 4.718 0 0 1 0 9.436zm4.904-8.52a1.103 1.103 0 1 1 0-2.205 1.103 1.103 0 0 1 0 2.205z" fill="#BD3180"></path><path d="M16 0C7.165 0 0 7.165 0 16s7.165 16 16 16 16-7.165 16-16S24.835 0 16 0zm9.132 19.788c-.044.978-.2 1.646-.427 2.23a4.698 4.698 0 0 1-2.687 2.687c-.584.227-1.252.382-2.23.427-.98.045-1.293.055-3.788.055s-2.808-.01-3.788-.055c-.978-.045-1.646-.2-2.23-.427a4.501 4.501 0 0 1-1.627-1.06 4.504 4.504 0 0 1-1.06-1.627c-.227-.584-.382-1.252-.427-2.23-.045-.98-.056-1.293-.056-3.788s.011-2.808.056-3.788c.044-.978.2-1.646.427-2.23a4.5 4.5 0 0 1 1.06-1.627 4.5 4.5 0 0 1 1.627-1.06c.584-.227 1.252-.382 2.23-.427.98-.045 1.293-.056 3.788-.056s2.808.011 3.788.056c.978.045 1.646.2 2.23.427.613.23 1.168.592 1.627 1.06.468.459.83 1.014 1.06 1.627.227.584.383 1.252.427 2.23.045.98.055 1.293.055 3.788s-.01 2.808-.055 3.788z" fill="#BD3180"></path></svg><svg width="36" height="36" viewBox="-10 -10 36 36" fill="none" id="login-fb" y="577"><g clip-path="url(#a)"><path d="M5.88 3.099v2.203H4.268v2.693H5.88V16h3.315V7.996h2.225s.208-1.292.309-2.704H9.209V3.45c0-.275.361-.646.718-.646h1.806V0H9.278C5.798 0 5.88 2.696 5.88 3.1z" fill="#F2F7FB"></path></g><defs><clipPath id="a"><path fill="#fff" d="M0 0h16v16H0z"></path></clipPath></defs></svg><svg width="36" height="36" viewBox="-10 -10 36 36" fill="none" id="login-google" y="613"><path d="M9.207 10.187a5 5 0 0 0-.562-.634 8.325 8.325 0 0 0-.616-.534c-.205-.16-.392-.314-.562-.461a2.279 2.279 0 0 1-.414-.462.88.88 0 0 1-.158-.49c0-.231.074-.447.221-.65.147-.201.327-.397.538-.586.212-.189.423-.396.635-.62a2.8 2.8 0 0 0 .538-.89c.148-.368.221-.79.221-1.264 0-.564-.125-1.106-.375-1.625A2.87 2.87 0 0 0 7.616.76h1.298L10.212 0H6.01c-.596 0-1.195.064-1.798.193a4.07 4.07 0 0 0-2.25 1.36c-.609.708-.913 1.511-.913 2.409 0 .948.341 1.737 1.024 2.365.683.628 1.501.942 2.457.942.192 0 .416-.016.673-.048a2.08 2.08 0 0 1-.068.207l-.077.207a1.313 1.313 0 0 0-.067.413c0 .423.205.9.615 1.433-.487.013-.967.056-1.442.13-.474.073-.97.189-1.49.346-.52.157-.984.384-1.394.683-.41.298-.718.652-.923 1.062C.12 12.177 0 12.61 0 13c0 .43.096.819.288 1.168.193.35.44.635.74.856.302.221.65.407 1.044.558.394.15.785.258 1.173.322s.77.096 1.149.096c1.718 0 3.064-.42 4.038-1.26.898-.782 1.346-1.685 1.346-2.711 0-.366-.053-.707-.158-1.024a2.87 2.87 0 0 0-.414-.818zM5.5 6.693c-.326 0-.637-.084-.932-.25a2.475 2.475 0 0 1-.75-.65 4.674 4.674 0 0 1-.539-.899 4.923 4.923 0 0 1-.34-1 4.408 4.408 0 0 1-.112-.952c0-.615.164-1.144.49-1.586.328-.442.79-.664 1.385-.664.424 0 .807.132 1.15.395.342.262.612.596.807 1 .196.403.346.822.452 1.254.106.433.159.842.159 1.226 0 .641-.14 1.156-.419 1.544-.278.388-.729.582-1.35.582zm2.659 7.22a1.892 1.892 0 0 1-.716.707c-.302.17-.624.295-.967.375-.342.08-.703.12-1.081.12-.41 0-.818-.048-1.221-.144a4.865 4.865 0 0 1-1.159-.438 2.409 2.409 0 0 1-.894-.807 2.064 2.064 0 0 1-.341-1.169c0-.384.086-.727.26-1.029.172-.3.393-.541.663-.72.269-.18.583-.328.942-.443a6.001 6.001 0 0 1 1.038-.24 7.609 7.609 0 0 1 1.02-.067c.211 0 .371.006.48.019a30.193 30.193 0 0 1 .909.644c.144.109.247.19.308.245l.264.245c.115.11.2.204.255.284.054.08.121.178.202.293.08.116.136.226.168.332.032.106.062.221.091.346.029.125.043.255.043.39 0 .403-.088.756-.264 1.057z" fill="#fff"></path><path d="M13.538 2.461V0h-1.23v2.461H9.845v1.231h2.461v2.462h1.231V3.692H16v-1.23h-2.46z" fill="#fff"></path></svg><svg width="44" height="44" viewBox="-10 -10 44 44" fill="none" id="modal-close" y="649"><g clip-path="url(#a)"><path fill="#fff" d="M-4-4h40v40H-4z"></path><path d="M21 4.8L19.2 3 12 10.2 4.8 3 3 4.8l7.2 7.2L3 19.2 4.8 21l7.2-7.2 7.2 7.2 1.8-1.8-7.2-7.2L21 4.8z" fill="#DFDFDF"></path></g><defs><clipPath id="a"><path fill="#fff" d="M0 0h24v24H0z"></path></clipPath></defs></svg><svg width="30" height="36" viewBox="-10 -10 30 36" fill="none" id="next" y="693"><path d="M1.7.16a.506.506 0 0 0-.737 0L.159.962a.507.507 0 0 0 0 .738L6.461 8l-6.3 6.3a.507.507 0 0 0 0 .738l.8.802a.506.506 0 0 0 .738 0L9.17 8.369a.507.507 0 0 0 0-.738L1.7.161z" fill="#333"></path></svg><svg width="44" height="44" viewBox="-10 -10 44 44" fill="none" id="no-avatar" y="729"><path d="M12 9.6A4.8 4.8 0 1 0 12 0a4.8 4.8 0 0 0 0 9.6zM12 18.24L8.16 12.6c1.2-.36 2.52-.6 3.84-.6 1.32 0 2.64.24 3.84.6L12 18.24z" fill="#333"></path><path d="M24 24H0c0-4.32 2.28-8.04 5.52-10.08L12 22.56l6.48-8.64C21.84 15.96 24 19.8 24 24z" fill="#333"></path></svg><svg width="28" height="34" viewBox="-10 -10 28 34" fill="none" id="p-next" y="773"><path d="M3.79 14l3.748-7-3.747-7H0l3.79 7L0 14h3.79z" fill="#000"></path></svg><svg width="28" height="34" viewBox="-10 -10 28 34" fill="none" id="p-prev" y="807"><path d="M3.748 0L0 7l3.748 7h3.79l-3.79-7 3.79-7h-3.79z" fill="#000"></path></svg><svg width="50" height="45" viewBox="-10 -10 50 45" fill="none" id="photo-camera" y="841"><path d="M28.5 3.967h-3l-1.35-2.55c0-.3-.3-.45-.6-.45h-8.1c-.3 0-.6.15-.6.45l-1.35 2.55H9v-1.5H4.05v1.5H1.5c-.9 0-1.5.6-1.5 1.5v18c0 .9.6 1.5 1.5 1.5h27c.9 0 1.5-.6 1.5-1.5v-18c0-.9-.6-1.5-1.5-1.5zm-9 18c-4.2 0-7.5-3.3-7.5-7.5s3.3-7.5 7.5-7.5 7.5 3.3 7.5 7.5-3.3 7.5-7.5 7.5z" fill="#72A2C9"></path><path d="M19.5 9.967c-.75 0-1.35.15-1.95.45 1.35 1.35-.75 3.6-2.1 2.1-.3.6-.45 1.2-.45 1.95 0 2.55 1.95 4.5 4.5 4.5s4.5-1.95 4.5-4.5-1.95-4.5-4.5-4.5z" fill="#72A2C9"></path></svg><svg width="51" height="36" viewBox="-10 -10 51 36" fill="none" id="plane" y="886"><path fill-rule="evenodd" clip-rule="evenodd" d="M30.65 7.944c.252-.474.21-.957-.028-1.415 0 0-.306-.466-.811-.887a25.108 25.108 0 0 1-.524-.425 7.12 7.12 0 0 0-2.937-.989c-1.133-.114-4.9-.002-8.864.156l-.008-.008-4.76.213-1.386.062c-2.438.11-4.335.196-4.85.196-.89 0-1.41-1.02-1.887-1.957-.404-.792-.777-1.524-1.318-1.524H.493c-.52 0-.646.558-.296 1.379.897 2.098 1.926 4.554 2.108 5.2.253.896 1.518 2.176 4.303 2.176h5.843l-1.528 5.386c-.077.27.089.493.367.493h2.352c.278 0 .631-.193.784-.428l3.542-5.451h4.71c2.783 0 7.086-.512 7.972-2.177zM12.39 4.011l-.026-.057 4.475-.263L13.748.373A1.335 1.335 0 0 0 12.895 0h-2.278c-.278 0-.394.2-.254.445L12.39 4.01zM10.227 6.38l.037 1.046a.314.314 0 0 1-.3.325l-1.032.038a.313.313 0 0 1-.321-.303L8.573 6.44a.315.315 0 0 1 .3-.326l1.032-.038a.314.314 0 0 1 .322.303zm3.03-.11l.037 1.045a.313.313 0 0 1-.3.325l-1.032.038a.313.313 0 0 1-.32-.302l-.038-1.046a.314.314 0 0 1 .3-.325l1.032-.038a.312.312 0 0 1 .32.303zm3.03-.111l.037 1.045a.314.314 0 0 1-.3.325l-1.032.038a.314.314 0 0 1-.322-.303l-.037-1.046a.312.312 0 0 1 .3-.323l1.032-.038a.311.311 0 0 1 .322.302zm3.029-.112l.037 1.045a.312.312 0 0 1-.297.326l-1.033.038a.313.313 0 0 1-.322-.303l-.037-1.046a.314.314 0 0 1 .297-.325l1.035-.038a.312.312 0 0 1 .32.303z" fill="#CCC"></path></svg><svg width="60" height="60" viewBox="-10 -10 60 60" fill="none" id="play" y="922"><circle cx="20" cy="20" r="20" fill="#0E90FB"></circle><path d="M26 20l-8.25 5.196V14.804L26 20z" fill="#fff"></path></svg><svg width="92" height="92" viewBox="-10 -10 92 92" fill="none" id="play-video" y="982"><path d="M36 0C16.2 0 0 16.2 0 36s16.2 36 36 36 36-16.2 36-36S55.8 0 36 0zm-7.2 52.2V19.8L50.4 36 28.8 52.2z" fill="#fff"></path></svg><svg width="35" height="34" viewBox="-10 -10 35 34" fill="none" id="pluss" y="1074"><path d="M14.064 8.908H9.192v4.76H5.58v-4.76H.736V5.492H5.58V.732h3.612v4.76h4.872v3.416z" fill="#000"></path></svg><svg width="30" height="36" viewBox="-10 -10 30 36" fill="none" id="prev" y="1108"><path d="M7.631 15.84a.506.506 0 0 0 .737 0l.802-.802a.506.506 0 0 0 0-.738L2.87 8l6.3-6.3a.507.507 0 0 0 0-.738L8.37.16a.506.506 0 0 0-.738 0L.161 7.631a.507.507 0 0 0 0 .738l7.47 7.47z" fill="#333"></path></svg><svg width="51" height="52" viewBox="-10 -10 51 52" fill="none" id="search" y="1144"><g clip-path="url(#b)" fill="#72A2C9" opacity=".25"><path d="M22.5 12.217c0-6.213-5.036-11.25-11.249-11.25C5.038.967.001 6.004.001 12.217s5.037 11.25 11.25 11.25 11.25-5.037 11.25-11.25zm-11.249 8.437c-4.653 0-8.437-3.784-8.437-8.437s3.784-8.438 8.437-8.438 8.438 3.785 8.438 8.438c0 4.653-3.785 8.437-8.438 8.437zM29.176 26.166l-6.883-6.883a13.248 13.248 0 0 1-3.977 3.977l6.883 6.883a2.812 2.812 0 1 0 3.977-3.977z"></path></g><defs><clipPath id="a"><path fill="#fff" transform="translate(0 .967)" d="M0 0h30.239v30.239H0z"></path></clipPath><clipPath id="b"><path fill="#fff" transform="translate(0 .967)" d="M0 0h30v30H0z"></path></clipPath></defs></svg><svg width="60" height="60" viewBox="-10 -10 60 60" fill="none" id="share-fb" y="1196"><path d="M20 0C8.972 0 0 8.972 0 20c0 11.027 8.972 20 20 20 11.027 0 20-8.973 20-20C40 8.972 31.029 0 20 0zm4.974 20.704H21.72v11.598h-4.822V20.704h-2.291v-4.099h2.291v-2.651c0-1.899.903-4.866 4.866-4.866l3.573.014v3.979h-2.593c-.422 0-1.022.21-1.022 1.116v2.409h3.673l-.421 4.098z" fill="#0060AE"></path></svg><svg width="60" height="60" viewBox="-10 -10 60 60" fill="none" id="share-tw" y="1256"><path d="M20 0C8.972 0 0 8.972 0 20c0 11.027 8.972 20 20 20 11.027 0 20-8.973 20-20C40 8.972 31.029 0 20 0zm8.922 15.422c.009.199.014.398.014.598 0 6.083-4.63 13.095-13.099 13.095-2.6 0-5.02-.76-7.056-2.066.36.043.727.064 1.098.064a9.24 9.24 0 0 0 5.718-1.97 4.608 4.608 0 0 1-4.3-3.198 4.638 4.638 0 0 0 2.078-.077 4.604 4.604 0 0 1-3.692-4.514v-.058c.62.344 1.33.552 2.085.576A4.6 4.6 0 0 1 9.72 14.04c0-.844.227-1.636.623-2.315a13.071 13.071 0 0 0 9.488 4.81 4.6 4.6 0 0 1-.119-1.049 4.603 4.603 0 0 1 7.963-3.15 9.19 9.19 0 0 0 2.924-1.117 4.624 4.624 0 0 1-2.026 2.547 9.155 9.155 0 0 0 2.643-.724 9.26 9.26 0 0 1-2.294 2.38z" fill="#0060AE"></path></svg><svg width="60" height="60" viewBox="-10 -10 60 60" fill="none" id="share-vk" y="1316"><path d="M20 0C8.955 0 0 8.954 0 20s8.955 20 20 20 20-8.954 20-20S31.045 0 20 0zm10.145 22.163c.932.91 1.918 1.767 2.755 2.772.371.444.72.904.986 1.42.38.738.037 1.546-.622 1.59l-4.098-.001c-1.058.088-1.9-.34-2.61-1.063-.567-.576-1.093-1.192-1.639-1.788a3.832 3.832 0 0 0-.737-.657c-.559-.363-1.044-.252-1.364.332-.326.593-.4 1.251-.432 1.912-.045.966-.336 1.219-1.305 1.264-2.072.097-4.037-.217-5.864-1.261-1.611-.921-2.859-2.221-3.945-3.693-2.117-2.87-3.738-6.019-5.194-9.259-.328-.73-.088-1.12.717-1.135 1.337-.026 2.674-.022 4.012-.001.544.009.904.32 1.113.833.723 1.778 1.609 3.47 2.719 5.04.296.417.598.834 1.028 1.128.475.326.836.219 1.06-.311.143-.337.205-.697.236-1.058.107-1.236.12-2.472-.065-3.703-.114-.771-.548-1.269-1.316-1.414-.391-.074-.334-.22-.143-.443.33-.386.64-.625 1.257-.625h4.63c.73.143.893.47.992 1.205l.004 5.144c-.008.285.143 1.128.654 1.314.409.135.679-.193.924-.452 1.11-1.178 1.9-2.569 2.61-4.008.312-.635.582-1.291.843-1.95.195-.486.498-.725 1.047-.717l4.458.005c.131 0 .265.001.395.024.751.128.957.452.725 1.184-.366 1.152-1.077 2.111-1.772 3.073-.745 1.03-1.539 2.023-2.276 3.057-.678.945-.624 1.421.217 2.242z" fill="#0060AE"></path></svg><svg width="40" height="41" viewBox="-10 -10 40 41" fill="none" id="shedule" y="1376"><path d="M10 .091c-5.5 0-10 4.49-10 9.976 0 5.486 4.5 9.975 10 9.975s10-4.489 10-9.975C20 4.58 15.5.09 10 .09zm5 10.973h-3.3c-.3.599-1 .998-1.7.998-1.1 0-2-.898-2-1.995 0-.699.4-1.397 1-1.696V3.084c0-.599.4-.998 1-.998s1 .4 1 .998V8.37c.3.2.5.399.7.698H15c.6 0 1 .4 1 .998s-.4.997-1 .997z" fill="#000"></path></svg><svg width="45" height="36" viewBox="-10 -10 45 36" fill="none" id="train" y="1417"><path fill-rule="evenodd" clip-rule="evenodd" d="M24.21 11.531H.731a.731.731 0 1 0 0 1.462h.865a2.235 2.235 0 0 0 3.591 2.434c.396.356.92.573 1.495.573 1.558 0 2.631-1.556 2.097-3.007h7.39a2.235 2.235 0 0 0 3.591 2.434c.396.356.92.573 1.494.573 1.559 0 2.632-1.556 2.098-3.007h.858a.731.731 0 1 0 0-1.462zM23.635.731A.731.731 0 0 0 22.904 0H2.044a.731.731 0 0 0-.732.731v9.748h22.323V.731zM5.894 8.286a.731.731 0 0 1-1.463 0V2.193a.731.731 0 1 1 1.463 0v6.093zm2.924 0a.731.731 0 0 1-1.462 0V2.193a.731.731 0 1 1 1.462 0v6.093zm2.924 0a.731.731 0 0 1-1.462 0V2.193a.731.731 0 1 1 1.462 0v6.093zm2.925 0a.731.731 0 0 1-1.463 0V2.193a.731.731 0 0 1 1.463 0v6.093zm2.924 0a.731.731 0 0 1-1.462 0V2.193a.731.731 0 1 1 1.462 0v6.093zm2.924 0a.731.731 0 0 1-1.462 0V2.193a.731.731 0 1 1 1.462 0v6.093z" fill="#CCC"></path></svg><svg width="23" height="24" viewBox="-10 -10 23 24" fill="none" id="triangle" y="1453"><path d="M3 2L.75 3.732V.268L3 2z" fill="#333"></path></svg><svg width="36" height="36" viewBox="-10 -10 36 36" fill="none" id="wishlist" y="1477"><path d="M8 15.11a.938.938 0 0 1-.619-.233c-.646-.565-1.27-1.096-1.819-1.564l-.003-.003c-1.612-1.373-3.004-2.56-3.972-3.728C.504 8.275 0 7.037 0 5.683 0 4.37.45 3.156 1.27 2.268A4.302 4.302 0 0 1 4.47.875c.923 0 1.77.292 2.514.868.375.29.716.646 1.016 1.061.3-.415.64-.77 1.016-1.061A4.024 4.024 0 0 1 11.53.875c1.236 0 2.373.495 3.2 1.393.82.888 1.27 2.1 1.27 3.415 0 1.354-.504 2.592-1.587 3.899-.968 1.168-2.36 2.354-3.972 3.728-.55.47-1.175 1.001-1.823 1.568A.94.94 0 0 1 8 15.11zM4.47 1.812c-.971 0-1.863.388-2.512 1.091-.658.715-1.02 1.702-1.02 2.78 0 1.139.422 2.156 1.37 3.3.917 1.107 2.28 2.269 3.86 3.614l.002.002c.552.47 1.178 1.004 1.829 1.573.655-.57 1.281-1.104 1.834-1.575 1.579-1.346 2.942-2.507 3.859-3.613.948-1.145 1.37-2.162 1.37-3.3 0-1.08-.362-2.066-1.02-2.78a3.375 3.375 0 0 0-2.512-1.092c-.71 0-1.364.226-1.94.672-.514.398-.872.9-1.082 1.252A.587.587 0 0 1 8 4.024c-.21 0-.4-.108-.508-.288-.21-.352-.568-.854-1.082-1.252a3.108 3.108 0 0 0-1.94-.672z" fill="#000"></path></svg><svg width="36" height="36" viewBox="-10 -10 36 36" fill="none" id="wishlist-fill" y="1513"><path d="M8 15.11a.938.938 0 0 1-.619-.233c-.646-.565-1.27-1.096-1.819-1.564l-.003-.003c-1.612-1.373-3.004-2.56-3.972-3.728C.504 8.275 0 7.037 0 5.683 0 4.37.45 3.156 1.27 2.268A4.302 4.302 0 0 1 4.47.875c.923 0 1.77.292 2.514.868.375.29.716.646 1.016 1.061.3-.415.64-.77 1.016-1.061A4.024 4.024 0 0 1 11.53.875c1.236 0 2.373.495 3.2 1.393.82.888 1.27 2.1 1.27 3.415 0 1.354-.504 2.592-1.587 3.899-.968 1.168-2.36 2.354-3.972 3.728-.55.47-1.175 1.001-1.823 1.568A.94.94 0 0 1 8 15.11zM4.47 1.812c-.971 0-1.863.388-2.512 1.091-.658.715-1.02 1.702-1.02 2.78 0 1.139.422 2.156 1.37 3.3.917 1.107 2.28 2.269 3.86 3.614l.002.002c.552.47 1.178 1.004 1.829 1.573.655-.57 1.281-1.104 1.834-1.575 1.579-1.346 2.942-2.507 3.859-3.613.948-1.145 1.37-2.162 1.37-3.3 0-1.08-.362-2.066-1.02-2.78a3.375 3.375 0 0 0-2.512-1.092c-.71 0-1.364.226-1.94.672-.514.398-.872.9-1.082 1.252A.587.587 0 0 1 8 4.024c-.21 0-.4-.108-.508-.288-.21-.352-.568-.854-1.082-1.252a3.108 3.108 0 0 0-1.94-.672z" fill="#EC1944"></path><path d="M6 1.5l2 2v11l-1.5-1-3.5-3-2-3-.5-2 1-2.5 2-1.5H6zM9.867 2L8 4v11l1.4-1 3.267-3L15 8l.5-2-1-3-2-1.5-2.633.5z" fill="#EC1944"></path></svg><svg width="52" height="52" viewBox="-10 -10 52 52" fill="none" id="youtube" y="1549"><path d="M14.008 18.998L19.212 16l-5.204-2.998v5.996z" fill="#D04531"></path><path d="M16 0C7.165 0 0 7.165 0 16s7.165 16 16 16 16-7.165 16-16S24.835 0 16 0zm9.998 16.016s0 3.245-.412 4.81a2.505 2.505 0 0 1-1.762 1.762C22.258 23 16 23 16 23s-6.242 0-7.823-.428a2.506 2.506 0 0 1-1.763-1.763C6.002 19.261 6.002 16 6.002 16s0-3.245.412-4.81a2.556 2.556 0 0 1 1.763-1.778C9.74 9 16 9 16 9s6.259 0 7.823.428c.857.23 1.532.906 1.763 1.763.428 1.564.412 4.825.412 4.825z" fill="#D04531"></path></svg></svg>